<svg xmlns="http://www.w3.org/2000/svg" xmlns:xlink="http://www.w3.org/1999/xlink" width="500" zoomAndPan="magnify" viewBox="0 0 375 374.999991" height="500" preserveAspectRatio="xMidYMid meet" version="1.0"><defs><clipPath id="51e07383ad"><path d="M 20.371094 27.359375 L 354.871094 27.359375 L 354.871094 347.609375 L 20.371094 347.609375 Z M 20.371094 27.359375 " clip-rule="nonzero"/></clipPath></defs><g clip-path="url(#51e07383ad)"><path fill="#00e8dc" d="M 339.355469 223.085938 C 332.542969 223.085938 326.824219 227.496094 324.738281 233.601562 L 305.039062 233.601562 L 296.628906 219.714844 C 295.460938 217.789062 293.285156 216.730469 291.046875 216.996094 C 288.808594 217.257812 286.941406 218.796875 286.257812 220.925781 L 279.914062 240.671875 L 264.492188 147.675781 C 264.023438 144.816406 261.429688 142.765625 258.597656 142.890625 C 255.707031 143.015625 253.359375 145.285156 253.125 148.15625 L 241.386719 295.992188 L 227.625 217.414062 C 227.175781 214.867188 225.09375 212.941406 222.527344 212.691406 C 219.929688 212.441406 217.535156 213.949219 216.617188 216.375 L 208.191406 238.636719 L 202.78125 227.589844 C 201.816406 225.617188 199.828125 224.375 197.632812 224.375 L 148.488281 224.375 C 145.332031 224.375 142.765625 226.9375 142.75 230.089844 L 142.75 278.359375 C 142.75 308.714844 118.011719 333.433594 87.617188 333.433594 L 86.980469 333.433594 C 56.582031 333.433594 31.847656 308.730469 31.847656 278.359375 L 31.847656 181.558594 L 154.222656 181.558594 L 154.222656 94.265625 C 154.207031 57.585938 124.339844 27.742188 87.601562 27.742188 L 86.964844 27.742188 C 50.253906 27.742188 20.371094 57.585938 20.371094 94.265625 L 20.371094 278.375 C 20.371094 315.054688 50.253906 344.898438 86.980469 344.898438 L 87.617188 344.898438 C 124.339844 344.898438 154.222656 315.054688 154.222656 278.375 L 154.222656 235.839844 L 194.058594 235.839844 L 203.730469 255.554688 C 204.738281 257.605469 206.839844 258.832031 209.140625 258.753906 C 211.425781 258.644531 213.429688 257.199219 214.238281 255.058594 L 219.945312 239.988281 L 237.886719 342.476562 C 238.371094 345.226562 240.765625 347.214844 243.53125 347.214844 C 243.625 347.214844 243.71875 347.214844 243.796875 347.214844 C 246.6875 347.074219 249.019531 344.820312 249.238281 341.945312 L 260.835938 195.789062 L 272.46875 265.902344 C 272.902344 268.511719 275.0625 270.484375 277.707031 270.6875 C 280.382812 270.871094 282.777344 269.242188 283.582031 266.722656 L 293.332031 236.414062 L 296.910156 242.300781 C 297.949219 244.011719 299.816406 245.066406 301.820312 245.066406 L 325.316406 245.066406 C 327.769531 250.378906 333.121094 254.078125 339.355469 254.078125 C 347.921875 254.078125 354.871094 247.132812 354.871094 238.574219 C 354.871094 230.015625 347.921875 223.085938 339.355469 223.085938 Z M 339.355469 223.085938 " fill-opacity="1" fill-rule="nonzero"/></g></svg>